<svg xmlns="http://www.w3.org/2000/svg" width="104" height="104" fill="none"><path fill="#fff" fill-rule="evenodd" d="m74.87 91.559 14.159-40.866c2.646-6.602 3.526-11.88 3.526-16.575a35.34 35.34 0 0 0-.312-4.759A45.982 45.982 0 0 1 97.92 51.56c0 17.072-9.268 31.979-23.051 39.999ZM57.952 29.868c2.79-.146 5.306-.44 5.306-.44 2.497-.294 2.203-3.96-.295-3.813 0 0-7.51.588-12.357.588-4.556 0-12.21-.588-12.21-.588-2.5-.146-2.792 3.666-.293 3.813 0 0 2.365.293 4.862.44l7.222 19.754-10.148 30.372-16.88-50.126a94.136 94.136 0 0 0 5.306-.44c2.497-.294 2.202-3.96-.297-3.813 0 0-7.507.588-12.355.588-.869 0-1.895-.022-2.985-.056 8.29-12.562 22.539-20.858 38.735-20.858 12.069 0 23.058 4.607 31.305 12.15-.199-.012-.395-.037-.6-.037-4.554 0-7.785 3.96-7.785 8.213 0 3.813 2.204 7.04 4.554 10.854 1.762 3.082 3.821 7.04 3.821 12.76 0 3.964-1.177 8.948-3.527 14.962l-4.625 15.422-16.754-49.745Zm-6.385 67.977c-4.55 0-8.943-.668-13.096-1.885l13.91-40.348 14.25 38.97c.093.228.207.438.331.638a46.382 46.382 0 0 1-15.395 2.625ZM5.195 51.554c0-6.71 1.442-13.08 4.015-18.834l22.113 60.481c-15.466-7.5-26.128-23.33-26.128-41.647ZM51.562.09C23.132.09 0 23.18 0 51.56c0 28.383 23.131 51.474 51.562 51.474 28.431 0 51.563-23.091 51.563-51.474 0-28.38-23.132-51.47-51.563-51.47Z" clip-rule="evenodd"/></svg>