<svg xmlns="http://www.w3.org/2000/svg" width="234" height="234" fill="none"><path fill="#3858E9" fill-rule="evenodd" d="m130.956 34.01 18.928 22.05H68.278c-9.738 0-17.376 3.514-22.988 9.31-5.404 5.58-8.528 12.846-10.405 19.885-3.335 12.512-3.236 26.495-3.181 34.223.006.884.011 1.685.011 2.394l14.625.002c0-.79-.004-1.64-.009-2.542-.04-7.917-.103-19.85 2.686-30.31 1.535-5.758 3.773-10.375 6.778-13.478 2.797-2.888 6.617-4.859 12.483-4.859H148.126l-16.789 16.763 10.334 10.35 29.295-29.25 4.799-4.793-4.417-5.146-29.295-34.125-11.097 9.527Zm-27.9 161.104L84.153 173.06H165.776c9.737 0 17.375-3.514 22.988-9.309 5.404-5.58 8.528-12.847 10.404-19.885 3.335-12.512 3.237-26.496 3.182-34.224v-.001c-.006-.883-.012-1.684-.012-2.392l-14.625-.002c0 .789.004 1.639.009 2.542.041 7.916.103 19.85-2.685 30.309-1.535 5.759-3.773 10.375-6.779 13.478-2.797 2.889-6.617 4.859-12.482 4.859H85.908l16.767-16.767-10.342-10.341-29.25 29.25-4.788 4.788 4.407 5.142 29.25 34.125 11.104-9.518Z" clip-rule="evenodd"/></svg>