<svg xmlns="http://www.w3.org/2000/svg" width="421" height="414" fill="none"><path fill="#3858E9" d="M67.45 182.687c-2.594 0-4.54-1.734-4.972-5.635-6.269-69.781-12.106-78.882-57.29-84.517C1.299 92.102 0 90.151 0 87.985c0-2.818 1.297-4.552 5.62-5.202C50.805 77.15 56.21 67.613 62.479 5.418 62.911 1.3 64.856 0 67.451 0c1.946 0 3.891 1.3 4.324 5.201 6.269 62.196 11.674 71.948 57.073 77.582 4.324.65 5.621 2.384 5.621 5.201 0 2.167-1.081 4.118-5.188 4.551-45.616 5.635-51.237 14.953-57.507 84.517-.216 3.901-2.161 5.635-4.323 5.635ZM265.48 392.462c-2.81 0-5.188-1.734-5.621-6.068-18.159-151.697-34.806-166.867-145.062-183.987-4.54-.65-6.269-2.817-6.269-5.634 0-3.034 1.729-4.985 6.485-5.635 110.04-16.903 126.903-32.723 143.765-169.9.433-4.551 2.811-6.502 5.621-6.502 3.243 0 4.973 1.95 5.837 6.935 18.16 136.961 33.726 152.781 143.549 169.467 4.757.65 6.702 2.601 6.702 5.635 0 2.817-1.945 4.984-6.485 5.634-110.04 17.12-125.606 32.507-142.685 183.987-.648 4.551-3.026 6.068-5.837 6.068ZM132.74 413.916c-2.595 0-4.54-1.95-4.757-5.851-6.269-69.564-12.106-78.882-57.506-84.517-3.675-.433-5.188-2.167-5.188-4.551 0-2.6 1.513-4.551 5.188-4.984 45.616-5.851 51.237-14.953 57.506-77.582.433-4.118 2.162-5.201 4.757-5.201 2.162 0 4.107 1.3 4.54 4.984 6.269 63.279 12.106 71.948 57.29 77.799 4.323.433 5.404 2.6 5.404 4.984s-1.513 4.118-5.404 4.551c-45.616 5.635-51.021 14.953-57.29 84.517-.433 3.684-1.946 5.851-4.54 5.851Z"/></svg>